<svg width="55" height="55" viewBox="0 0 55 55" fill="none" xmlns="http://www.w3.org/2000/svg">
<rect width="55" height="55" rx="8" fill="#3D3D3D"/>
<path d="M27 11.3334C24.8113 11.3334 22.644 11.7645 20.6219 12.602C18.5998 13.4396 16.7625 14.6673 15.2149 16.2149C12.0893 19.3405 10.3333 23.5798 10.3333 28C10.3333 35.3667 15.1166 41.6167 21.7333 43.8334C22.5666 43.9667 22.8333 43.45 22.8333 43V40.1834C18.2166 41.1834 17.2333 37.95 17.2333 37.95C16.4666 36.0167 15.3833 35.5 15.3833 35.5C13.8666 34.4667 15.5 34.5 15.5 34.5C17.1666 34.6167 18.05 36.2167 18.05 36.2167C19.5 38.75 21.95 38 22.9 37.6C23.05 36.5167 23.4833 35.7834 23.95 35.3667C20.25 34.95 16.3666 33.5167 16.3666 27.1667C16.3666 25.3167 17 23.8334 18.0833 22.65C17.9166 22.2334 17.3333 20.5 18.25 18.25C18.25 18.25 19.65 17.8 22.8333 19.95C24.15 19.5834 25.5833 19.4 27 19.4C28.4166 19.4 29.85 19.5834 31.1666 19.95C34.35 17.8 35.75 18.25 35.75 18.25C36.6666 20.5 36.0833 22.2334 35.9166 22.65C37 23.8334 37.6333 25.3167 37.6333 27.1667C37.6333 33.5334 33.7333 34.9334 30.0166 35.35C30.6166 35.8667 31.1666 36.8834 31.1666 38.4334V43C31.1666 43.45 31.4333 43.9834 32.2833 43.8334C38.9 41.6 43.6666 35.3667 43.6666 28C43.6666 25.8113 43.2355 23.6441 42.398 21.622C41.5604 19.5999 40.3327 17.7626 38.7851 16.2149C37.2374 14.6673 35.4001 13.4396 33.378 12.602C31.3559 11.7645 29.1887 11.3334 27 11.3334Z" fill="white"/>
</svg>
