<svg width="55" height="55" viewBox="0 0 55 55" fill="none" xmlns="http://www.w3.org/2000/svg">
<rect width="55" height="55" rx="8" fill="#FF0072"/>
<path d="M33 28C33 28.9889 32.7068 29.9556 32.1573 30.7779C31.6079 31.6001 30.827 32.241 29.9134 32.6194C28.9998 32.9978 27.9945 33.0969 27.0245 32.9039C26.0546 32.711 25.1637 32.2348 24.4645 31.5355C23.7652 30.8363 23.289 29.9454 23.0961 28.9755C22.9031 28.0055 23.0022 27.0002 23.3806 26.0866C23.759 25.173 24.3999 24.3921 25.2221 23.8427C26.0444 23.2932 27.0111 23 28 23C29.3248 23.0041 30.5942 23.5322 31.531 24.469C32.4678 25.4058 32.9959 26.6752 33 28ZM43.625 21.125V34.875C43.625 37.1956 42.7031 39.4212 41.0622 41.0622C39.4212 42.7031 37.1956 43.625 34.875 43.625H21.125C18.8044 43.625 16.5788 42.7031 14.9378 41.0622C13.2969 39.4212 12.375 37.1956 12.375 34.875V21.125C12.375 18.8044 13.2969 16.5788 14.9378 14.9378C16.5788 13.2969 18.8044 12.375 21.125 12.375H34.875C37.1956 12.375 39.4212 13.2969 41.0622 14.9378C42.7031 16.5788 43.625 18.8044 43.625 21.125ZM35.5 28C35.5 26.5166 35.0601 25.0666 34.236 23.8332C33.4119 22.5999 32.2406 21.6386 30.8701 21.0709C29.4997 20.5032 27.9917 20.3547 26.5368 20.6441C25.082 20.9335 23.7456 21.6478 22.6967 22.6967C21.6478 23.7456 20.9335 25.082 20.6441 26.5368C20.3547 27.9917 20.5032 29.4997 21.0709 30.8701C21.6386 32.2406 22.5999 33.4119 23.8332 34.236C25.0666 35.0601 26.5166 35.5 28 35.5C29.9891 35.5 31.8968 34.7098 33.3033 33.3033C34.7098 31.8968 35.5 29.9891 35.5 28ZM38 19.875C38 19.5042 37.89 19.1416 37.684 18.8333C37.478 18.525 37.1851 18.2846 36.8425 18.1427C36.4999 18.0008 36.1229 17.9637 35.7592 18.036C35.3955 18.1084 35.0614 18.287 34.7992 18.5492C34.537 18.8114 34.3584 19.1455 34.286 19.5092C34.2137 19.8729 34.2508 20.2499 34.3927 20.5925C34.5346 20.9351 34.775 21.228 35.0833 21.434C35.3916 21.64 35.7542 21.75 36.125 21.75C36.6223 21.75 37.0992 21.5525 37.4508 21.2008C37.8025 20.8492 38 20.3723 38 19.875Z" fill="white"/>
</svg>
