<svg width="55" height="55" viewBox="0 0 55 55" fill="none" xmlns="http://www.w3.org/2000/svg">
<rect width="55" height="55" rx="8" fill="#2662A9"/>
<path d="M39.6667 13C40.5507 13 41.3986 13.3512 42.0237 13.9763C42.6488 14.6014 43 15.4493 43 16.3333V39.6667C43 40.5507 42.6488 41.3986 42.0237 42.0237C41.3986 42.6488 40.5507 43 39.6667 43H16.3333C15.4493 43 14.6014 42.6488 13.9763 42.0237C13.3512 41.3986 13 40.5507 13 39.6667V16.3333C13 15.4493 13.3512 14.6014 13.9763 13.9763C14.6014 13.3512 15.4493 13 16.3333 13H39.6667ZM38.8333 38.8333V30C38.8333 28.559 38.2609 27.177 37.2419 26.1581C36.223 25.1391 34.841 24.5667 33.4 24.5667C31.9833 24.5667 30.3333 25.4333 29.5333 26.7333V24.8833H24.8833V38.8333H29.5333V30.6167C29.5333 29.3333 30.5667 28.2833 31.85 28.2833C32.4688 28.2833 33.0623 28.5292 33.4999 28.9668C33.9375 29.4043 34.1833 29.9978 34.1833 30.6167V38.8333H38.8333ZM19.4667 22.2667C20.2093 22.2667 20.9215 21.9717 21.4466 21.4466C21.9717 20.9215 22.2667 20.2093 22.2667 19.4667C22.2667 17.9167 21.0167 16.65 19.4667 16.65C18.7196 16.65 18.0032 16.9468 17.475 17.475C16.9468 18.0032 16.65 18.7196 16.65 19.4667C16.65 21.0167 17.9167 22.2667 19.4667 22.2667ZM21.7833 38.8333V24.8833H17.1667V38.8333H21.7833Z" fill="white"/>
</svg>
