<svg width="22" height="22" viewBox="0 0 22 22" fill="none" xmlns="http://www.w3.org/2000/svg">
<path d="M20.5129 15.8367L18.3765 13.7002C17.9898 13.3138 17.5055 13.0395 16.9752 12.9067C16.4449 12.7739 15.8886 12.7875 15.3654 12.9461C14.8422 13.1046 14.3719 13.4022 14.0046 13.8071C13.6373 14.212 13.3868 14.709 13.2798 15.2451C9.75674 14.5863 6.33024 11.1739 6.11696 8.12383C6.7159 8.01366 7.26711 7.72377 7.6973 7.29272C8.26371 6.72624 8.5819 5.95796 8.5819 5.15689C8.5819 4.35581 8.26371 3.58754 7.6973 3.02105L5.56146 0.884609C4.99498 0.3182 4.22671 0 3.42563 0C2.62455 0 1.85628 0.3182 1.2898 0.884609C-5.11832 7.29272 14.1048 26.5158 20.5129 20.1077C21.079 19.5412 21.397 18.7731 21.397 17.9722C21.397 17.1713 21.079 16.4032 20.5129 15.8367Z" fill="black"/>
</svg>
