<svg width="55" height="55" viewBox="0 0 55 55" fill="none" xmlns="http://www.w3.org/2000/svg">
<rect width="55" height="55" rx="8" fill="#1DA1F2"/>
<path d="M44.4333 18C43.15 18.5833 41.7667 18.9666 40.3333 19.15C41.8 18.2666 42.9333 16.8666 43.4667 15.1833C42.0833 16.0166 40.55 16.6 38.9333 16.9333C37.6167 15.5 35.7667 14.6666 33.6667 14.6666C29.75 14.6666 26.55 17.8666 26.55 21.8166C26.55 22.3833 26.6167 22.9333 26.7333 23.45C20.8 23.15 15.5167 20.3 12 15.9833C11.3833 17.0333 11.0333 18.2666 11.0333 19.5666C11.0333 22.05 12.2833 24.25 14.2167 25.5C13.0333 25.5 11.9333 25.1666 10.9667 24.6666V24.7166C10.9667 28.1833 13.4333 31.0833 16.7 31.7333C15.6512 32.0203 14.5502 32.0602 13.4833 31.85C13.936 33.2708 14.8226 34.514 16.0184 35.4048C17.2142 36.2957 18.6591 36.7894 20.15 36.8166C17.6227 38.8174 14.49 39.8988 11.2667 39.8833C10.7 39.8833 10.1333 39.85 9.56668 39.7833C12.7333 41.8166 16.5 43 20.5333 43C33.6667 43 40.8833 32.1 40.8833 22.65C40.8833 22.3333 40.8833 22.0333 40.8667 21.7166C42.2667 20.7166 43.4667 19.45 44.4333 18Z" fill="white"/>
</svg>
